<svg width="18.000000" height="19.000000" viewBox="0 0 18 19" fill="none" xmlns="http://www.w3.org/2000/svg" xmlns:xlink="http://www.w3.org/1999/xlink">
	<defs>
		<clipPath id="clip3_15">
			<rect id="icon.Comments" width="18.000000" height="19.000000" fill="white" fill-opacity="0"/>
		</clipPath>
	</defs>
	<rect id="icon.Comments" width="18.000000" height="19.000000" fill="#FFFFFF" fill-opacity="0"/>
	<g clip-path="url(#clip3_15)">
		<path id="Vector" d="M17.99 1.34L17.99 13.84C17.61 14.97 17.29 15.19 16.13 15.19C14 15.19 11.88 15.19 9.75 15.19C9.14 15.19 8.46 15.03 7.92 15.26C7.39 15.48 7.01 16.09 6.56 16.54C5.74 17.36 4.92 18.18 4.1 18.99L3.78 18.99C3.45 18.84 3.35 18.59 3.36 18.22C3.38 17.22 3.36 16.23 3.36 15.19C2.79 15.19 2.25 15.16 1.73 15.2C0.67 15.29 -0.01 14.53 -0.01 13.4C0.02 9.53 0 5.66 0 1.79C0 0.6 0.58 0 1.7 0C6.51 0 11.31 0 16.11 0C17.27 0 17.61 0.24 17.99 1.34ZM4.48 17.02C5.4 16.09 6.25 15.25 7.08 14.39C7.34 14.13 7.61 14.01 7.98 14.01C10.76 14.03 13.55 14.02 16.33 14.02C16.8 14.02 16.87 13.95 16.87 13.46C16.87 9.54 16.86 5.63 16.87 1.72C16.87 1.33 16.74 1.17 16.35 1.17C11.45 1.18 6.55 1.17 1.65 1.17C1.19 1.17 1.13 1.25 1.12 1.75C1.12 2.94 1.12 4.14 1.12 5.34C1.12 8 1.12 10.65 1.12 13.31C1.12 14.01 1.13 14.01 1.81 14.01C2.41 14.01 3.01 14.01 3.61 14.01C4.3 14.01 4.47 14.2 4.48 14.91C4.48 15.58 4.48 16.25 4.48 17.02L4.48 17.02Z" fill="#000000" fill-opacity="1.000000" fill-rule="nonzero"/>
		<path id="Vector" d="M8.95 4.81C10.49 4.81 12.03 4.81 13.57 4.81C14.09 4.81 14.32 4.99 14.31 5.4C14.3 5.78 14.06 5.98 13.57 5.98C10.5 5.98 7.42 5.98 4.35 5.98C3.9 5.98 3.62 5.75 3.62 5.39C3.61 5.03 3.89 4.81 4.34 4.81C5.88 4.81 7.42 4.81 8.95 4.81L8.95 4.81Z" fill="#000000" fill-opacity="1.000000" fill-rule="nonzero"/>
		<path id="Vector" d="M8.12 9.8C6.86 9.8 5.6 9.78 4.34 9.81C3.91 9.82 3.66 9.58 3.65 9.24C3.64 8.88 3.89 8.66 4.34 8.66C6.85 8.65 9.37 8.65 11.88 8.66C12.33 8.66 12.59 8.87 12.58 9.23C12.57 9.55 12.33 9.82 11.89 9.81C10.63 9.78 9.38 9.8 8.12 9.8Z" fill="#000000" fill-opacity="1.000000" fill-rule="nonzero"/>
	</g>
</svg>
