<svg width="20.000000" height="18.000000" viewBox="0 0 20 18" fill="none" xmlns="http://www.w3.org/2000/svg" xmlns:xlink="http://www.w3.org/1999/xlink">
	<defs/>
	<rect id="icon.Heart" width="20.000000" height="18.000000" fill="#FFFFFF" fill-opacity="0"/>
	<path id="Vector" d="M15.63 1.35C13.53 0.94 11.86 1.68 10.51 3.61L10 4.35L9.48 3.61C8.14 1.68 6.46 0.94 4.36 1.35C1.33 1.93 0.17 6.02 2.42 9.26C3.52 10.85 6.06 13.24 9.97 16.39L10 16.41L10.02 16.41C13.8 13.36 16.29 11.03 17.45 9.43L17.56 9.27C19.81 6.03 18.65 1.94 15.62 1.36L15.63 1.35ZM10.01 2.23C11.56 0.39 13.54 -0.32 15.87 0.12C19.87 0.89 21.32 6.04 18.6 9.96C17.36 11.74 14.63 14.31 10.39 17.68L10 18L9.6 17.68L9.18 17.35C5.17 14.13 2.58 11.68 1.39 9.96C-1.33 6.04 0.12 0.89 4.12 0.12C6.45 -0.32 8.43 0.39 9.98 2.23L10.01 2.23Z" fill="#000000" fill-opacity="1.000000" fill-rule="nonzero"/>
</svg>
