<svg width="15.000000" height="20.000000" viewBox="0 0 15 20" fill="none" xmlns="http://www.w3.org/2000/svg" xmlns:xlink="http://www.w3.org/1999/xlink">
	<defs>
		<clipPath id="clip3_26">
			<rect id="icon.Comments" width="15.000000" height="20.000000" fill="white" fill-opacity="0"/>
		</clipPath>
	</defs>
	<rect id="icon.Comments" width="15.000000" height="20.000000" fill="#FFFFFF" fill-opacity="0"/>
	<g clip-path="url(#clip3_26)">
		<path id="Vector" d="M8.07 2.31C8.07 2.29 8.07 2.27 8.07 2.26C8.07 2.25 8.08 2.24 8.08 2.23C8.08 2.22 8.08 2.22 8.09 2.22C8.09 2.21 8.09 2.21 8.11 2.21C8.92 3.03 9.58 3.7 10.38 4.51C10.49 4.62 10.63 4.68 10.79 4.68C11.09 4.68 11.35 4.43 11.35 4.12C11.35 3.96 11.28 3.82 11.17 3.71C9.9 2.43 8.76 1.28 7.5 0L3.84 3.69C3.73 3.79 3.66 3.94 3.66 4.11C3.66 4.41 3.9 4.67 4.21 4.67C4.36 4.67 4.49 4.61 4.59 4.51C4.59 4.51 4.6 4.51 4.6 4.51C4.6 4.51 4.61 4.5 4.61 4.5C5.4 3.7 6.05 3.05 6.84 2.24C6.85 2.23 6.87 2.22 6.88 2.22C6.88 2.21 6.89 2.21 6.89 2.21C6.89 2.21 6.9 2.22 6.92 2.23L6.92 12.12L6.92 12.12C6.94 12.42 7.19 12.67 7.49 12.67C7.8 12.67 8.05 12.43 8.07 12.12C8.07 12.12 8.07 12.12 8.07 12.12C8.07 8.58 8.07 5.85 8.07 2.31L8.07 2.31Z" fill="#000000" fill-opacity="1.000000" fill-rule="nonzero"/>
		<path id="Vector" d="M14.99 7.87C14.99 7.77 14.99 7.67 14.98 7.57C14.9 6.72 14.22 6.06 13.39 6.02C13.17 6.01 12.95 6.01 12.74 6.01C11.63 6.01 11.95 6.01 10.84 6.01C10.79 6.01 10.74 6.02 10.69 6.02C10.68 6.02 10.68 6.02 10.67 6.02C10.35 6.02 10.09 6.28 10.09 6.6C10.09 6.92 10.35 7.18 10.67 7.18L10.67 7.18L10.67 7.18L10.84 7.18C12.09 7.18 11.89 7.18 13.14 7.18C13.2 7.18 13.27 7.18 13.33 7.19C13.6 7.21 13.8 7.4 13.82 7.67C13.83 7.73 13.83 7.79 13.83 7.85C13.83 11.28 13.83 14.72 13.83 18.15C13.83 18.21 13.83 18.27 13.82 18.34C13.8 18.56 13.66 18.74 13.45 18.8C13.36 18.82 13.27 18.82 13.18 18.82C9.39 18.82 5.6 18.82 1.81 18.82C1.76 18.82 1.71 18.83 1.66 18.82C1.42 18.8 1.23 18.65 1.18 18.41C1.16 18.32 1.15 18.23 1.15 18.14C1.15 14.72 1.15 11.29 1.15 7.86C1.15 7.81 1.15 7.76 1.16 7.71C1.18 7.44 1.34 7.25 1.59 7.2C1.66 7.18 1.74 7.18 1.81 7.18C3.08 7.18 2.9 7.18 4.16 7.18C4.2 7.18 4.24 7.18 4.28 7.18C4.29 7.18 4.29 7.18 4.3 7.18C4.3 7.18 4.31 7.18 4.32 7.18C4.32 7.18 4.32 7.18 4.33 7.18C4.63 7.16 4.87 6.91 4.87 6.6C4.87 6.28 4.63 6.03 4.33 6.02L4.33 6.01L4.3 6.01L4.15 6.01C2.9 6.01 3.09 6.01 1.84 6.01C1.76 6.01 1.67 6.02 1.59 6.02C0.94 6.06 0.29 6.49 0.07 7.24C0.01 7.44 0 7.65 0 7.86C0 11.29 0 14.72 0 18.15C0 18.22 -0.01 18.29 0 18.35C0.05 19.04 0.38 19.55 1 19.84C1.26 19.97 1.53 20 1.81 20C5.6 19.99 9.38 20 13.17 20C13.24 20 13.31 20 13.38 19.99C14.08 19.93 14.58 19.58 14.86 18.93C14.97 18.68 15 18.41 15 18.14C15 14.72 15 11.3 15 7.87L14.99 7.87Z" fill="#000000" fill-opacity="1.000000" fill-rule="nonzero"/>
	</g>
</svg>
