<svg width="15.000000" height="18.000000" viewBox="0 0 15 18" fill="none" xmlns="http://www.w3.org/2000/svg" xmlns:xlink="http://www.w3.org/1999/xlink">
	<defs>
		<clipPath id="clip3_30">
			<rect id="icon.PageUp" width="15.000000" height="18.000000" fill="white" fill-opacity="0"/>
		</clipPath>
	</defs>
	<rect id="icon.PageUp" width="15.000000" height="18.000000" fill="#FFFFFF" fill-opacity="0"/>
	<g clip-path="url(#clip3_30)">
		<path id="Vector" d="M11.17 7.91C9.9 6.7 8.76 5.62 7.49 4.42L3.84 7.89C3.72 7.99 3.65 8.13 3.65 8.28C3.65 8.57 3.9 8.81 4.21 8.81C4.35 8.81 4.49 8.75 4.59 8.66C4.59 8.66 4.59 8.66 4.59 8.66C4.6 8.66 4.6 8.66 4.61 8.66C5.4 7.9 6.05 7.29 6.84 6.53C6.85 6.52 6.86 6.52 6.87 6.51C6.88 6.51 6.88 6.51 6.89 6.51C6.89 6.51 6.89 6.51 6.91 6.52L6.91 13.05L6.91 13.05C6.93 13.34 7.18 13.57 7.49 13.57C7.8 13.57 8.04 13.34 8.06 13.05C8.06 13.05 8.07 13.05 8.07 13.05C8.07 9.72 8.07 9.93 8.07 6.6C8.07 6.58 8.07 6.56 8.07 6.54C8.07 6.53 8.07 6.52 8.07 6.52C8.07 6.51 8.07 6.51 8.08 6.51C8.08 6.5 8.09 6.5 8.1 6.5C8.91 7.27 9.57 7.9 10.38 8.66C10.48 8.76 10.62 8.83 10.78 8.83C11.09 8.83 11.34 8.59 11.34 8.3C11.34 8.15 11.27 8.01 11.17 7.91L11.17 7.91Z" fill="#000000" fill-opacity="1.000000" fill-rule="nonzero"/>
		<path id="Vector" d="M14.99 1.74C14.99 1.65 14.99 1.56 14.98 1.47C14.9 0.66 14.22 0.04 13.39 0C13.17 -0.01 12.95 0 12.74 0C12.11 0 11.62 0 11.12 0C10.98 0 10.83 0 10.68 0C8.91 0 3.01 0 1.84 0C1.76 0 1.67 0 1.59 0C0.94 0.04 0.29 0.45 0.07 1.15C0.01 1.34 -0.01 1.53 -0.01 1.73C-0.01 4.96 -0.01 13.03 -0.01 16.26C-0.01 16.32 -0.01 16.39 0 16.45C0.05 17.1 0.38 17.57 1 17.85C1.26 17.97 1.53 18 1.81 18C5.6 17.99 9.38 18 13.17 18C13.24 18 13.31 18 13.38 17.99C14.08 17.94 14.58 17.61 14.86 17C14.97 16.76 14.99 16.51 14.99 16.25C14.99 13.03 14.99 4.97 14.99 1.75L14.99 1.74ZM13.83 16.26C13.83 16.32 13.83 16.37 13.82 16.43C13.8 16.65 13.66 16.81 13.45 16.87C13.36 16.89 13.27 16.89 13.18 16.89C9.39 16.89 5.6 16.89 1.81 16.89C1.76 16.89 1.71 16.89 1.66 16.89C1.42 16.87 1.23 16.73 1.18 16.5C1.16 16.42 1.15 16.34 1.15 16.25C1.15 13.03 1.15 4.96 1.15 1.74C1.15 1.69 1.15 1.64 1.16 1.59C1.18 1.34 1.34 1.16 1.59 1.11C1.66 1.1 1.74 1.1 1.81 1.1C2.82 1.1 7.28 1.1 9.67 1.1C9.67 1.1 9.67 1.1 9.67 1.1C9.67 1.1 9.67 1.1 9.67 1.1L9.84 1.1C11.09 1.1 11.89 1.1 13.14 1.1C13.2 1.1 13.27 1.1 13.33 1.1C13.6 1.12 13.8 1.3 13.82 1.55C13.83 1.61 13.83 1.67 13.83 1.73C13.83 4.95 13.83 13.03 13.83 16.26Z" fill="#000000" fill-opacity="1.000000" fill-rule="nonzero"/>
	</g>
</svg>
